<svg width="41" height="40" viewBox="0 0 41 40" fill="none" xmlns="http://www.w3.org/2000/svg">
<ellipse cx="20.139" cy="20" rx="20.139" ry="20" fill="#FDD835"/>
<path d="M12.0835 14.6062H29.2017H12.0835ZM27.8849 10H13.4003C13.051 10 12.7161 10.1621 12.4692 10.4506C12.2222 10.7391 12.0835 11.1304 12.0835 11.5385V28.4615C12.0835 28.8696 12.2222 29.2609 12.4692 29.5494C12.7161 29.8379 13.051 30 13.4003 30H27.8849C28.2341 30 28.569 29.8379 28.816 29.5494C29.0629 29.2609 29.2017 28.8696 29.2017 28.4615V11.5385C29.2017 11.1304 29.0629 10.7391 28.816 10.4506C28.569 10.1621 28.2341 10 27.8849 10Z" fill="#FDD835"/>
<path d="M12.0835 14.6062H29.2017M27.8849 10H13.4003C13.051 10 12.7161 10.1621 12.4692 10.4506C12.2222 10.7391 12.0835 11.1304 12.0835 11.5385V28.4615C12.0835 28.8696 12.2222 29.2609 12.4692 29.5494C12.7161 29.8379 13.051 30 13.4003 30H27.8849C28.2341 30 28.569 29.8379 28.816 29.5494C29.0629 29.2609 29.2017 28.8696 29.2017 28.4615V11.5385C29.2017 11.1304 29.0629 10.7391 28.816 10.4506C28.569 10.1621 28.2341 10 27.8849 10Z" stroke="#0D1A12" stroke-width="1.36703" stroke-linecap="round" stroke-linejoin="round"/>
</svg>
