<svg width="41" height="40" viewBox="0 0 41 40" fill="none" xmlns="http://www.w3.org/2000/svg">
<ellipse cx="20.1267" cy="20" rx="20.1267" ry="20" fill="#FDD835"/>
<path d="M13.0825 22H15.2234C15.4862 22 15.7454 22.066 15.9805 22.194L17.8059 23.182C18.041 23.309 18.3002 23.375 18.5639 23.375H19.4954C20.3964 23.375 21.1276 24.166 21.1276 25.142C21.1276 25.182 21.1035 25.216 21.0686 25.227L18.7972 25.93C18.3896 26.056 17.955 26.0119 17.5744 25.806L15.623 24.75" fill="#FDD835"/>
<path d="M13.0825 22H15.2234C15.4862 22 15.7454 22.066 15.9805 22.194L17.8059 23.182C18.041 23.309 18.3002 23.375 18.5639 23.375H19.4954C20.3964 23.375 21.1276 24.166 21.1276 25.142C21.1276 25.182 21.1035 25.216 21.0686 25.227L18.7972 25.93C18.3896 26.056 17.955 26.0119 17.5744 25.806L15.623 24.75" stroke="#0D1A12" stroke-width="1.50001" stroke-linecap="round" stroke-linejoin="round"/>
<path d="M21.1276 24.5001L25.2333 23.0891C25.5907 22.9664 25.9737 22.9731 26.3275 23.1084C26.6813 23.2436 26.9878 23.5004 27.2034 23.8421C27.5333 24.3521 27.3992 25.0841 26.9183 25.3941L20.2006 29.7311C19.9906 29.8671 19.758 29.9538 19.517 29.9859C19.276 30.0181 19.0317 29.995 18.799 29.9181L13.0825 28.0201M22.9154 20.0001H21.1276C19.4417 20.0001 18.5997 20.0001 18.0758 19.4141C17.552 18.8281 17.552 17.886 17.552 16V14C17.552 12.114 17.552 11.172 18.0758 10.586C18.5997 10 19.4417 10 21.1276 10H22.9154C24.6013 10 25.4434 10 25.9672 10.586C26.491 11.172 26.491 12.114 26.491 14V16C26.491 17.886 26.491 18.8281 25.9672 19.4141C25.4434 20.0001 24.6013 20.0001 22.9154 20.0001ZM21.1276 13H22.9154H21.1276Z" fill="#FDD835"/>
<path d="M21.1276 24.5001L25.2333 23.0891C25.5907 22.9664 25.9737 22.9731 26.3275 23.1084C26.6813 23.2436 26.9878 23.5004 27.2034 23.8421C27.5333 24.3521 27.3992 25.0841 26.9183 25.3941L20.2006 29.7311C19.9906 29.8671 19.758 29.9538 19.517 29.9859C19.276 30.0181 19.0317 29.995 18.799 29.9181L13.0825 28.0201M21.1276 13H22.9154M22.9154 20.0001H21.1276C19.4417 20.0001 18.5997 20.0001 18.0758 19.4141C17.552 18.8281 17.552 17.886 17.552 16V14C17.552 12.114 17.552 11.172 18.0758 10.586C18.5997 10 19.4417 10 21.1276 10H22.9154C24.6013 10 25.4434 10 25.9672 10.586C26.491 11.172 26.491 12.114 26.491 14V16C26.491 17.886 26.491 18.8281 25.9672 19.4141C25.4434 20.0001 24.6013 20.0001 22.9154 20.0001Z" stroke="#0D1A12" stroke-width="1.50001" stroke-linecap="round" stroke-linejoin="round"/>
</svg>
