<svg width="41" height="40" viewBox="0 0 41 40" fill="none" xmlns="http://www.w3.org/2000/svg">
<ellipse cx="20.1266" cy="20" rx="20.1266" ry="20" fill="#FDD835"/>
<path d="M14.1591 30C13.6221 30 13.1628 29.8241 12.7812 29.4722C12.3996 29.1204 12.2084 28.6985 12.2076 28.2067V25.8111H11.6038C11.4323 25.8111 11.289 25.7578 11.1739 25.6511C11.058 25.5452 11 25.4133 11 25.2556C11 25.0978 11.058 24.9659 11.1739 24.86C11.2898 24.7541 11.4331 24.7011 11.6038 24.7011H12.2076V20.5556H11.6038C11.4323 20.5556 11.289 20.5022 11.1739 20.3956C11.0588 20.2889 11.0008 20.1567 11 19.9989C10.9992 19.8411 11.0572 19.7093 11.1739 19.6033C11.2906 19.4974 11.4339 19.4444 11.6038 19.4444H12.2076V15.3H11.6038C11.4323 15.3 11.289 15.2463 11.1739 15.1389C11.0588 15.0315 11.0008 14.9 11 14.7444C10.9992 14.5889 11.0572 14.457 11.1739 14.3489C11.2906 14.2407 11.4339 14.1874 11.6038 14.1889H12.2076V11.7956C12.2076 11.3015 12.3988 10.8789 12.7812 10.5278C13.1636 10.1767 13.6225 10.0007 14.1579 10H27.1637C27.6998 10 28.1587 10.1759 28.5403 10.5278C28.9219 10.8796 29.1131 11.3019 29.1139 11.7944V28.2056C29.1139 28.6989 28.9227 29.1211 28.5403 29.4722C28.1579 29.8233 27.699 29.9993 27.1637 30H14.1591ZM14.1591 28.8889H27.1637C27.3802 28.8889 27.5581 28.8248 27.6974 28.6967C27.8367 28.5685 27.9063 28.4048 27.9063 28.2056V11.7944C27.9063 11.5952 27.8367 11.4315 27.6974 11.3033C27.5581 11.1752 27.3802 11.1111 27.1637 11.1111H14.1579C13.9413 11.1111 13.7634 11.1752 13.6241 11.3033C13.4848 11.4315 13.4152 11.5956 13.4152 11.7956V14.1878H14.019C14.1905 14.1878 14.3338 14.2411 14.4489 14.3478C14.5648 14.4544 14.6228 14.5867 14.6228 14.7444C14.6228 14.9022 14.5648 15.0341 14.4489 15.14C14.333 15.2459 14.1897 15.2989 14.019 15.2989H13.4152V19.4444H14.019C14.1905 19.4444 14.3338 19.4978 14.4489 19.6044C14.564 19.7111 14.622 19.8433 14.6228 20.0011C14.6236 20.1589 14.5656 20.2907 14.4489 20.3967C14.3322 20.5026 14.1889 20.5556 14.019 20.5556H13.4152V24.7H14.019C14.1905 24.7 14.3338 24.7537 14.4489 24.8611C14.564 24.9685 14.622 25.1 14.6228 25.2556C14.6236 25.4111 14.5656 25.543 14.4489 25.6511C14.3322 25.7593 14.1889 25.8126 14.019 25.8111H13.4152V28.2033C13.4152 28.4033 13.4848 28.5674 13.6241 28.6956C13.7634 28.8237 13.9417 28.8889 14.1591 28.8889ZM18.4774 20.7889V24.7211C18.4774 24.8633 18.5277 24.9807 18.6284 25.0733C18.7298 25.1659 18.8574 25.2122 19.0112 25.2122C19.165 25.2122 19.2926 25.1659 19.394 25.0733C19.4954 24.9807 19.5462 24.8633 19.5462 24.7211V20.79C20.0228 20.6885 20.4285 20.4707 20.7634 20.1367C21.0975 19.8026 21.2646 19.4141 21.2646 18.9711V15.2133C21.2646 15.1 21.2183 15.0004 21.1257 14.9144C21.0323 14.8293 20.9236 14.7867 20.7996 14.7867C20.6757 14.7867 20.5674 14.8293 20.4748 14.9144C20.3822 14.9996 20.3359 15.0996 20.3359 15.2144V18.8956H19.4761V15.2133C19.4761 15.1 19.4298 15.0004 19.3372 14.9144C19.2447 14.8293 19.136 14.7867 19.0112 14.7867C18.888 14.7867 18.7801 14.8293 18.6876 14.9144C18.5942 15.0004 18.5475 15.1004 18.5475 15.2144V18.8956H17.6889V15.2133C17.6889 15.1 17.6422 15.0004 17.5488 14.9144C17.4562 14.8293 17.3475 14.7867 17.2227 14.7867C17.0996 14.7867 16.9917 14.8293 16.8991 14.9144C16.8057 15.0004 16.759 15.1004 16.759 15.2144V18.9722C16.759 19.4152 16.9265 19.8037 17.2614 20.1378C17.5955 20.4719 18.0008 20.6896 18.4774 20.7911M24.0976 20.7689V24.7222C24.0976 24.8644 24.1479 24.9819 24.2485 25.0744C24.3492 25.167 24.4768 25.2133 24.6313 25.2133C24.7859 25.2133 24.9135 25.167 25.0141 25.0744C25.1148 24.9819 25.1655 24.8644 25.1663 24.7222V15.2756C25.1663 15.12 25.1099 14.9996 24.9972 14.9144C24.8853 14.8293 24.7396 14.7867 24.5601 14.7867C24.3443 14.7867 24.1076 14.8444 23.85 14.96C23.5924 15.0756 23.3461 15.2556 23.111 15.5C22.8437 15.7667 22.6396 16.0685 22.4987 16.4056C22.357 16.7419 22.2862 17.1059 22.2862 17.4978V19.8722C22.2862 20.1263 22.3796 20.3393 22.5663 20.5111C22.7539 20.683 22.9858 20.7689 23.2619 20.7689H24.0976Z" fill="#0D1A12"/>
</svg>
