<svg width="29" height="30" viewBox="0 0 29 30" fill="none" xmlns="http://www.w3.org/2000/svg">
<path d="M26.06 12.5519H25.121V12.5H14.6295V17.5H21.2176C20.2565 20.4106 17.6738 22.5 14.6295 22.5C10.7668 22.5 7.63509 19.1419 7.63509 15C7.63509 10.8581 10.7668 7.5 14.6295 7.5C16.4125 7.5 18.0346 8.22125 19.2697 9.39937L22.5669 5.86375C20.4849 3.78312 17.7 2.5 14.6295 2.5C8.19173 2.5 2.97217 8.09688 2.97217 15C2.97217 21.9031 8.19173 27.5 14.6295 27.5C21.0672 27.5 26.2868 21.9031 26.2868 15C26.2868 14.1619 26.2063 13.3438 26.06 12.5519Z" fill="#FFC107"/>
<path d="M4.31641 9.18188L8.14641 12.1938C9.18275 9.4425 11.6926 7.5 14.6296 7.5C16.4126 7.5 18.0347 8.22125 19.2698 9.39938L22.5671 5.86375C20.4851 3.78313 17.7002 2.5 14.6296 2.5C10.1521 2.5 6.269 5.21063 4.31641 9.18188Z" fill="#FF3D00"/>
<path d="M14.6294 27.5C17.6405 27.5 20.3764 26.2644 22.445 24.255L18.8371 20.9813C17.6274 21.9677 16.1492 22.5013 14.6294 22.5C11.5973 22.5 9.0228 20.4269 8.05291 17.5338L4.25146 20.6744C6.18075 24.7225 10.0988 27.5 14.6294 27.5Z" fill="#4CAF50"/>
<path d="M26.06 12.5519H25.121V12.5H14.6294V17.5H21.2175C20.7578 18.8853 19.9296 20.0957 18.8353 20.9819L18.8371 20.9806L22.445 24.2544C22.1897 24.5031 26.2867 21.25 26.2867 15C26.2867 14.1619 26.2063 13.3438 26.06 12.5519Z" fill="#1976D2"/>
</svg>
