<svg width="24" height="24" viewBox="0 0 24 24" fill="none" xmlns="http://www.w3.org/2000/svg">
<path d="M20.3627 3.48906C19.2645 2.37858 17.9567 1.49819 16.5155 0.899179C15.0743 0.300172 13.5285 -0.00546639 11.9682 7.39956e-05C5.43015 7.39956e-05 0.101806 5.33706 0.0958174 11.889C0.0958174 13.9875 0.643773 16.029 1.6783 17.8365L0 24L6.294 22.347C8.03519 23.2964 9.98586 23.794 11.9682 23.7945H11.9742C18.5137 23.7945 23.8406 18.4575 23.8465 11.8995C23.848 10.3366 23.5409 8.78883 22.9427 7.34537C22.3445 5.90191 21.4686 4.59131 20.3627 3.48906ZM11.9682 21.7815C10.2001 21.7821 8.46442 21.3054 6.94376 20.4015L6.58445 20.1855L2.85057 21.1665L3.84767 17.517L3.61411 17.1405C2.62571 15.566 2.10296 13.7431 2.10648 11.883C2.10648 6.44405 6.53355 2.00707 11.9742 2.00707C13.2703 2.00474 14.5541 2.25948 15.7515 2.7566C16.9489 3.25373 18.0363 3.9834 18.9509 4.90356C19.8687 5.82013 20.5963 6.90969 21.0917 8.1094C21.5871 9.3091 21.8405 10.5952 21.8374 11.8935C21.8314 17.352 17.4043 21.7815 11.9682 21.7815ZM17.3804 14.3805C17.0854 14.232 15.6287 13.5135 15.3547 13.4115C15.0823 13.314 14.8831 13.263 14.6885 13.56C14.4894 13.8555 13.9205 14.529 13.7498 14.7225C13.5791 14.922 13.4025 14.9445 13.106 14.7975C12.8111 14.6475 11.8544 14.3355 10.7226 13.32C9.83925 12.5325 9.24787 11.5575 9.07121 11.262C8.90054 10.965 9.05474 10.806 9.20296 10.6575C9.33321 10.5255 9.4979 10.3095 9.64611 10.1385C9.79583 9.96754 9.84523 9.84154 9.94255 9.64354C10.0399 9.44254 9.99345 9.27154 9.92009 9.12304C9.84523 8.97455 9.25386 7.50905 9.00384 6.91805C8.76429 6.33455 8.52026 6.41555 8.33761 6.40805C8.16693 6.39755 7.96781 6.39755 7.76869 6.39755C7.61832 6.4013 7.47035 6.43614 7.33406 6.4999C7.19777 6.56366 7.07611 6.65495 6.9767 6.76805C6.70422 7.06505 5.94217 7.78355 5.94217 9.24904C5.94217 10.7145 7.00515 12.123 7.15486 12.3225C7.30158 12.522 9.24188 15.5205 12.2197 16.8105C12.9234 17.118 13.4773 17.2995 13.91 17.4375C14.6211 17.6655 15.2634 17.631 15.7754 17.5575C16.3443 17.4705 17.5286 16.8375 17.7786 16.143C18.0241 15.447 18.0241 14.853 17.9493 14.7285C17.8759 14.6025 17.6768 14.529 17.3804 14.3805Z" fill="#0D1A12"/>
</svg>
