<svg width="41" height="40" viewBox="0 0 41 40" fill="none" xmlns="http://www.w3.org/2000/svg">
<ellipse cx="20.1267" cy="20" rx="20.1267" ry="20" fill="#FDD835"/>
<path d="M29.4701 19.1849L28.4401 17.7549C28.2095 17.4312 27.9051 17.167 27.5521 16.9844C27.199 16.8018 26.8075 16.706 26.4101 16.7049H22.0301V14.5649C22.0301 13.9019 21.7667 13.266 21.2978 12.7972C20.829 12.3283 20.1931 12.0649 19.5301 12.0649H12.5601C11.8976 12.0668 11.2628 12.3308 10.7943 12.7992C10.3259 13.2677 10.0619 13.9025 10.0601 14.5649V24.5049C10.0601 24.9028 10.2181 25.2843 10.4994 25.5656C10.7807 25.8469 11.1622 26.0049 11.5601 26.0049H12.7801C12.8556 26.54 13.1218 27.0297 13.5297 27.3841C13.9376 27.7385 14.4597 27.9336 15.0001 27.9336C15.5404 27.9336 16.0626 27.7385 16.4705 27.3841C16.8784 27.0297 17.1445 26.54 17.2201 26.0049H22.7801C22.8556 26.54 23.1218 27.0297 23.5297 27.3841C23.9376 27.7385 24.4597 27.9336 25.0001 27.9336C25.5404 27.9336 26.0626 27.7385 26.4705 27.3841C26.8784 27.0297 27.1445 26.54 27.2201 26.0049H28.4401C28.8379 26.0049 29.2194 25.8469 29.5007 25.5656C29.782 25.2843 29.9401 24.9028 29.9401 24.5049V20.6349C29.9382 20.1145 29.7738 19.6076 29.4701 19.1849ZM15.0001 26.9349C14.7528 26.9349 14.5112 26.8616 14.3056 26.7243C14.1 26.5869 13.9398 26.3917 13.8452 26.1633C13.7506 25.9349 13.7258 25.6836 13.7741 25.4411C13.8223 25.1986 13.9414 24.9759 14.1162 24.8011C14.291 24.6262 14.5137 24.5072 14.7562 24.459C14.9987 24.4107 15.25 24.4355 15.4784 24.5301C15.7068 24.6247 15.902 24.7849 16.0394 24.9905C16.1767 25.196 16.2501 25.4377 16.2501 25.6849C16.2501 26.0165 16.1184 26.3344 15.8839 26.5688C15.6495 26.8032 15.3316 26.9349 15.0001 26.9349ZM21.0301 25.0049H17.1501C17.0045 24.5491 16.7177 24.1513 16.3313 23.869C15.9448 23.5868 15.4786 23.4346 15.0001 23.4346C14.5215 23.4346 14.0553 23.5868 13.6689 23.869C13.2824 24.1513 12.9957 24.5491 12.8501 25.0049H11.5601C11.4275 25.0049 11.3003 24.9523 11.2065 24.8585C11.1127 24.7647 11.0601 24.6375 11.0601 24.5049V14.5649C11.0601 14.1671 11.2181 13.7856 11.4994 13.5043C11.7807 13.223 12.1622 13.0649 12.5601 13.0649H19.5301C19.9279 13.0649 20.3094 13.223 20.5907 13.5043C20.872 13.7856 21.0301 14.1671 21.0301 14.5649V25.0049ZM25.0001 26.9349C24.7528 26.9349 24.5112 26.8616 24.3056 26.7243C24.1 26.5869 23.9398 26.3917 23.8452 26.1633C23.7506 25.9349 23.7258 25.6836 23.7741 25.4411C23.8223 25.1986 23.9414 24.9759 24.1162 24.8011C24.291 24.6262 24.5137 24.5072 24.7562 24.459C24.9987 24.4107 25.25 24.4355 25.4784 24.5301C25.7068 24.6247 25.902 24.7849 26.0394 24.9905C26.1767 25.196 26.2501 25.4377 26.2501 25.6849C26.2501 26.0165 26.1184 26.3344 25.8839 26.5688C25.6495 26.8032 25.3316 26.9349 25.0001 26.9349ZM28.9401 24.5049C28.9401 24.6375 28.8874 24.7647 28.7936 24.8585C28.6998 24.9523 28.5727 25.0049 28.4401 25.0049H27.1501C27.0045 24.5491 26.7177 24.1513 26.3313 23.869C25.9448 23.5868 25.4786 23.4346 25.0001 23.4346C24.5215 23.4346 24.0553 23.5868 23.6689 23.869C23.2824 24.1513 22.9957 24.5491 22.8501 25.0049H22.0301V17.7049H26.4101C26.6486 17.7069 26.8833 17.7649 27.0952 17.8743C27.3072 17.9838 27.4904 18.1416 27.6301 18.3349L28.6601 19.7649C28.8399 20.0196 28.9375 20.3232 28.9401 20.6349V24.5049Z" fill="#0D1A12"/>
<path d="M26.0288 20.2051H24.0288C23.8962 20.2051 23.769 20.1524 23.6753 20.0586C23.5815 19.9649 23.5288 19.8377 23.5288 19.7051C23.5288 19.5725 23.5815 19.4453 23.6753 19.3515C23.769 19.2578 23.8962 19.2051 24.0288 19.2051H26.0288C26.1614 19.2051 26.2886 19.2578 26.3824 19.3515C26.4761 19.4453 26.5288 19.5725 26.5288 19.7051C26.5288 19.8377 26.4761 19.9649 26.3824 20.0586C26.2886 20.1524 26.1614 20.2051 26.0288 20.2051Z" fill="black"/>
</svg>
