<svg width="41" height="40" viewBox="0 0 41 40" fill="none" xmlns="http://www.w3.org/2000/svg">
<ellipse cx="20.139" cy="20" rx="20.139" ry="20" fill="#FDD835"/>
<path d="M19.998 12C23.147 12 25.742 14.335 25.982 17.355L25.996 17.578L26 17.802L25.999 21.398L26.924 23.62C26.9466 23.674 26.9643 23.7297 26.977 23.787L26.993 23.873L27.001 24.005C26.9999 24.2257 26.9258 24.4398 26.7903 24.614C26.6549 24.7881 26.4656 24.9126 26.252 24.968L26.136 24.995L26.001 25.005L22.5 25.004L22.495 25.165C22.4548 25.7994 22.1744 26.3947 21.711 26.8298C21.2475 27.2648 20.6357 27.507 20 27.507C19.3643 27.507 18.7525 27.2648 18.289 26.8298C17.8255 26.3947 17.5452 25.7994 17.505 25.165L17.5 25.004H13.999C13.9112 25.0041 13.8238 24.9927 13.739 24.97L13.615 24.928C13.4131 24.8429 13.2448 24.6939 13.1358 24.5038C13.0269 24.3138 12.9834 24.0932 13.012 23.876L13.033 23.748L13.076 23.62L13.999 21.401L14 17.793L14.004 17.568C14.127 14.451 16.771 12 19.998 12ZM21.5 25.004H18.5L18.507 25.145C18.5406 25.4913 18.6936 25.8151 18.9397 26.061C19.1858 26.3069 19.5097 26.4596 19.856 26.493L20 26.5C20.3727 26.5 20.7321 26.3612 21.0081 26.1108C21.2841 25.8603 21.4569 25.516 21.493 25.145L21.5 25.004ZM19.998 13C17.375 13 15.228 14.924 15.018 17.385L15.004 17.597L15 17.802V21.5L14.962 21.692L13.999 24.005L25.957 24.007L26.002 24.005L25.038 21.692L25 21.5V17.812L24.996 17.608C24.891 15.035 22.695 13 19.998 13Z" fill="#0D1A12"/>
</svg>
