<svg width="41" height="40" viewBox="0 0 41 40" fill="none" xmlns="http://www.w3.org/2000/svg">
<ellipse cx="20.1266" cy="20" rx="20.1266" ry="20" fill="#FDD835"/>
<path d="M21.5 16.183V12.817C21.5 12.579 21.578 12.3833 21.734 12.23C21.89 12.0767 22.0833 12 22.314 12H27.194C27.4253 12 27.6173 12.0767 27.77 12.23C27.9227 12.3833 27.9993 12.579 28 12.817V16.183C28 16.4217 27.922 16.6173 27.766 16.77C27.61 16.9233 27.4167 17 27.186 17H22.306C22.0753 17 21.8833 16.9233 21.73 16.77C21.5767 16.6167 21.5 16.421 21.5 16.183ZM12 19.2V12.8C12 12.5733 12.078 12.3833 12.234 12.23C12.39 12.0767 12.5833 12 12.814 12H17.694C17.9253 12 18.1173 12.0767 18.27 12.23C18.4227 12.3833 18.4993 12.5733 18.5 12.8V19.2C18.5 19.4267 18.422 19.6167 18.266 19.77C18.11 19.9233 17.9167 20 17.686 20H12.806C12.5753 20 12.3833 19.9233 12.23 19.77C12.0767 19.6167 12 19.4267 12 19.2ZM21.5 27.2V20.8C21.5 20.5733 21.578 20.3833 21.734 20.23C21.89 20.0767 22.0833 20 22.314 20H27.194C27.4253 20 27.6173 20.0767 27.77 20.23C27.9227 20.3833 27.9993 20.5733 28 20.8V27.2C28 27.4267 27.922 27.6167 27.766 27.77C27.61 27.9233 27.4167 28 27.186 28H22.306C22.0753 28 21.8833 27.9233 21.73 27.77C21.5767 27.6167 21.5 27.4267 21.5 27.2ZM12 27.183V23.817C12 23.579 12.078 23.3833 12.234 23.23C12.39 23.0767 12.5833 23 12.814 23H17.694C17.9253 23 18.1173 23.0767 18.27 23.23C18.4227 23.3833 18.4993 23.579 18.5 23.817V27.183C18.5 27.4217 18.422 27.6173 18.266 27.77C18.11 27.9233 17.9167 28 17.686 28H12.806C12.5753 28 12.3833 27.9233 12.23 27.77C12.0767 27.6167 12 27.421 12 27.183ZM13 19H17.5V13H13V19ZM22.5 27H27V21H22.5V27ZM22.5 16H27V13H22.5V16ZM13 27H17.5V24H13V27Z" fill="#0D1A12"/>
</svg>
