<svg width="41" height="40" viewBox="0 0 41 40" fill="none" xmlns="http://www.w3.org/2000/svg">
<ellipse cx="20.1267" cy="20" rx="20.1267" ry="20" fill="#FDD835"/>
<path d="M21.2 22.497C21.6774 22.497 22.1352 22.6787 22.4728 23.0021C22.8104 23.3255 23 23.7641 23 24.2215V24.7964C23 27.0624 20.768 29.3951 17 29.3951C13.232 29.3951 11 27.0624 11 24.7964V24.2215C11 23.7641 11.1896 23.3255 11.5272 23.0021C11.8648 22.6787 12.3226 22.497 12.8 22.497H21.2ZM21.2 23.6467H12.8C12.6409 23.6467 12.4883 23.7072 12.3757 23.815C12.2632 23.9228 12.2 24.0691 12.2 24.2215V24.7964C12.2 26.4496 13.9184 28.2455 17 28.2455C20.0816 28.2455 21.8 26.4496 21.8 24.7964V24.2215C21.8 24.0691 21.7368 23.9228 21.6243 23.815C21.5117 23.7072 21.3591 23.6467 21.2 23.6467ZM17 15.0239C17.8752 15.0239 18.7146 15.357 19.3335 15.95C19.9523 16.5429 20.3 17.3471 20.3 18.1856C20.3 19.0241 19.9523 19.8283 19.3335 20.4212C18.7146 21.0142 17.8752 21.3473 17 21.3473C16.1248 21.3473 15.2854 21.0142 14.6665 20.4212C14.0477 19.8283 13.7 19.0241 13.7 18.1856C13.7 17.3471 14.0477 16.5429 14.6665 15.95C15.2854 15.357 16.1248 15.0239 17 15.0239ZM27.8 11C28.4053 11.0001 28.9882 11.2193 29.4319 11.6138C29.8756 12.0082 30.1474 12.5487 30.1928 13.1269L30.2 13.2994V15.5988C30.2002 16.1789 29.9715 16.7376 29.5598 17.163C29.1481 17.5884 28.5838 17.8489 27.98 17.8924L27.8 17.8982H25.9988L24.5612 19.7377C23.9252 20.5494 22.6364 20.2206 22.4288 19.3054L22.4084 19.1778L22.4 19.0479V17.8235L22.3064 17.8005C21.8749 17.6756 21.4887 17.4369 21.1923 17.1115C20.8958 16.7862 20.7009 16.3875 20.63 15.9609L20.606 15.7701L20.6 15.5988V13.2994C20.5998 12.7193 20.8285 12.1605 21.2402 11.7352C21.6519 11.3098 22.2162 11.0493 22.82 11.0057L23 11H27.8ZM17 16.1736C16.7242 16.1736 16.4511 16.2257 16.1964 16.3268C15.9416 16.4279 15.7101 16.5761 15.5151 16.7629C15.3201 16.9498 15.1654 17.1716 15.0599 17.4157C14.9543 17.6598 14.9 17.9214 14.9 18.1856C14.9 18.4498 14.9543 18.7114 15.0599 18.9556C15.1654 19.1997 15.3201 19.4215 15.5151 19.6083C15.7101 19.7951 15.9416 19.9433 16.1964 20.0444C16.4511 20.1455 16.7242 20.1976 17 20.1976C17.557 20.1976 18.0911 19.9856 18.4849 19.6083C18.8788 19.231 19.1 18.7192 19.1 18.1856C19.1 17.652 18.8788 17.1402 18.4849 16.7629C18.0911 16.3856 17.557 16.1736 17 16.1736ZM27.8 12.1497H23C22.7061 12.1497 22.4224 12.2531 22.2028 12.4402C21.9831 12.6274 21.8428 12.8852 21.8084 13.1649L21.8 13.2994V15.5988C21.8 15.8804 21.9079 16.1522 22.1033 16.3626C22.2986 16.573 22.5677 16.7075 22.8596 16.7404L23 16.7485H23.6V19.0479L25.4 16.7485H27.8C28.0939 16.7484 28.3776 16.6451 28.5972 16.4579C28.8169 16.2708 28.9572 16.013 28.9916 15.7333L29 15.5988V13.2994C29 13.0178 28.8921 12.746 28.6967 12.5356C28.5014 12.3251 28.2323 12.1907 27.9404 12.1577L27.8 12.1497Z" fill="#0D1A12"/>
</svg>
