<svg width="41" height="40" viewBox="0 0 41 40" fill="none" xmlns="http://www.w3.org/2000/svg">
<ellipse cx="20.139" cy="20" rx="20.139" ry="20" fill="#FDD835"/>
<path d="M13.125 13.75C12.0969 13.75 11.25 14.5969 11.25 15.625V24.375C11.25 25.4031 12.0969 26.25 13.125 26.25H26.875C27.9031 26.25 28.75 25.4031 28.75 24.375V15.625C28.75 14.5969 27.9031 13.75 26.875 13.75H13.125ZM13.125 15H26.875C27.2281 15 27.5 15.2719 27.5 15.625V16.875H13.125V18.125H27.5V24.375C27.5 24.7281 27.2281 25 26.875 25H13.125C12.7719 25 12.5 24.7281 12.5 24.375V15.625C12.5 15.2719 12.7719 15 13.125 15Z" fill="#0D1A12"/>
</svg>
