<svg width="40" height="40" viewBox="0 0 40 40" fill="none" xmlns="http://www.w3.org/2000/svg">
<rect width="40" height="40" rx="8" fill="#C4F0D8"/>
<g clip-path="url(#clip0_115_70)">
<path fill-rule="evenodd" clip-rule="evenodd" d="M28.7938 24.4944C28.2734 23.5981 27.5 21.0622 27.5 17.75C27.5 13.6079 24.1421 10.25 20 10.25C15.8579 10.25 12.5 13.6079 12.5 17.75C12.5 21.0631 11.7256 23.5981 11.2053 24.4944C10.9349 24.9581 10.9329 25.5311 11.2002 25.9967C11.4674 26.4623 11.9631 26.7496 12.5 26.75H16.3259C16.6827 28.4956 18.2184 29.7492 20 29.7492C21.7816 29.7492 23.3173 28.4956 23.6741 26.75H27.5C28.0367 26.7493 28.5321 26.4619 28.7991 25.9963C29.0662 25.5308 29.0641 24.958 28.7938 24.4944ZM20 28.25C19.0467 28.2497 18.1971 27.6487 17.8794 26.75H22.1206C21.8029 27.6487 20.9533 28.2497 20 28.25ZM12.5 25.25C13.2219 24.0088 14 21.1325 14 17.75C14 14.4363 16.6863 11.75 20 11.75C23.3137 11.75 26 14.4363 26 17.75C26 21.1297 26.7763 24.0059 27.5 25.25H12.5Z" fill="#0B7D3F"/>
</g>
<defs>
<clipPath id="clip0_115_70">
<rect width="24" height="24" fill="white" transform="translate(8 8)"/>
</clipPath>
</defs>
</svg>
