<svg width="40" height="40" viewBox="0 0 40 40" fill="none" xmlns="http://www.w3.org/2000/svg">
<rect width="40" height="40" rx="8" fill="#C4F0D8"/>
<g clip-path="url(#clip0_115_63)">
<path fill-rule="evenodd" clip-rule="evenodd" d="M20 10.25C14.6152 10.25 10.25 14.6152 10.25 20C10.25 25.3848 14.6152 29.75 20 29.75C25.3848 29.75 29.75 25.3848 29.75 20C29.7443 14.6176 25.3824 10.2557 20 10.25ZM17.5278 23.75H22.4722C21.9688 25.4694 21.125 27.0191 20 28.2397C18.875 27.0191 18.0312 25.4694 17.5278 23.75ZM17.1875 22.25C16.9388 20.7603 16.9388 19.2397 17.1875 17.75H22.8125C23.0612 19.2397 23.0612 20.7603 22.8125 22.25H17.1875ZM11.75 20C11.7493 19.2392 11.8544 18.4819 12.0622 17.75H15.6678C15.4441 19.2417 15.4441 20.7583 15.6678 22.25H12.0622C11.8544 21.5181 11.7493 20.7608 11.75 20ZM22.4722 16.25H17.5278C18.0312 14.5306 18.875 12.9809 20 11.7603C21.125 12.9809 21.9688 14.5306 22.4722 16.25ZM24.3322 17.75H27.9378C28.3541 19.2211 28.3541 20.7789 27.9378 22.25H24.3322C24.5559 20.7583 24.5559 19.2417 24.3322 17.75ZM27.3472 16.25H24.0256C23.6429 14.7439 23.0001 13.3162 22.1263 12.0312C24.3838 12.6379 26.28 14.1701 27.3472 16.25ZM17.8737 12.0312C16.9999 13.3162 16.3571 14.7439 15.9744 16.25H12.6528C13.72 14.1701 15.6162 12.6379 17.8737 12.0312ZM12.6528 23.75H15.9744C16.3571 25.2561 16.9999 26.6838 17.8737 27.9688C15.6162 27.3621 13.72 25.8299 12.6528 23.75ZM22.1263 27.9688C23.0001 26.6838 23.6429 25.2561 24.0256 23.75H27.3472C26.28 25.8299 24.3838 27.3621 22.1263 27.9688Z" fill="#0B7D3F"/>
</g>
<defs>
<clipPath id="clip0_115_63">
<rect width="24" height="24" fill="white" transform="translate(8 8)"/>
</clipPath>
</defs>
</svg>
