<svg width="40" height="40" viewBox="0 0 40 40" fill="none" xmlns="http://www.w3.org/2000/svg">
<rect width="40" height="40" rx="8" fill="#C4F0D8"/>
<g clip-path="url(#clip0_115_56)">
<path fill-rule="evenodd" clip-rule="evenodd" d="M22.25 19.25H20.75V13.25H21.5C23.1569 13.25 24.5 14.5931 24.5 16.25C24.5 16.6642 24.8358 17 25.25 17C25.6642 17 26 16.6642 26 16.25C25.9974 13.7658 23.9842 11.7526 21.5 11.75H20.75V10.25C20.75 9.83579 20.4142 9.5 20 9.5C19.5858 9.5 19.25 9.83579 19.25 10.25V11.75H18.5C16.0147 11.75 14 13.7647 14 16.25C14 18.7353 16.0147 20.75 18.5 20.75H19.25V26.75H17.75C16.0931 26.75 14.75 25.4069 14.75 23.75C14.75 23.3358 14.4142 23 14 23C13.5858 23 13.25 23.3358 13.25 23.75C13.2526 26.2342 15.2658 28.2474 17.75 28.25H19.25V29.75C19.25 30.1642 19.5858 30.5 20 30.5C20.4142 30.5 20.75 30.1642 20.75 29.75V28.25H22.25C24.7353 28.25 26.75 26.2353 26.75 23.75C26.75 21.2647 24.7353 19.25 22.25 19.25ZM18.5 19.25C16.8431 19.25 15.5 17.9069 15.5 16.25C15.5 14.5931 16.8431 13.25 18.5 13.25H19.25V19.25H18.5ZM22.25 26.75H20.75V20.75H22.25C23.9069 20.75 25.25 22.0931 25.25 23.75C25.25 25.4069 23.9069 26.75 22.25 26.75Z" fill="#0B7D3F"/>
</g>
<defs>
<clipPath id="clip0_115_56">
<rect width="24" height="24" fill="white" transform="translate(8 8)"/>
</clipPath>
</defs>
</svg>
