<svg width="200" height="180" viewBox="0 0 200 180" fill="none" xmlns="http://www.w3.org/2000/svg">
<path d="M76.6956 104.733H29.356L28.8541 90.1885C28.8324 89.5581 28.9477 88.9304 29.192 88.3487C29.4363 87.767 29.8039 87.2451 30.2694 86.8189C30.7349 86.3928 31.2873 86.0724 31.8885 85.88C32.4898 85.6876 33.1256 85.6277 33.7523 85.7044L61.3007 89.0751H61.3041C65.3882 89.0861 69.3014 90.7143 72.1864 93.6029C75.0714 96.4916 76.6929 100.405 76.6956 104.486V104.733Z" fill="#5FD896"/>
<path d="M55.5964 53.1425H22.5793C22.1402 53.1423 21.7054 53.2287 21.2997 53.3965C20.894 53.5644 20.5254 53.8105 20.2149 54.1207C19.9044 54.431 19.6581 54.7993 19.4901 55.2047C19.3221 55.6101 19.2357 56.0446 19.2358 56.4834V89.4752C19.2357 89.9139 19.3221 90.3484 19.4901 90.7538C19.6581 91.1592 19.9044 91.5276 20.2149 91.8378C20.5254 92.1481 20.894 92.3942 21.2997 92.562C21.7054 92.7299 22.1402 92.8162 22.5793 92.8161H55.5964C56.0355 92.8162 56.4703 92.7299 56.876 92.562C57.2817 92.3942 57.6504 92.1481 57.9609 91.8378C58.2714 91.5276 58.5176 91.1592 58.6856 90.7538C58.8536 90.3484 58.94 89.9139 58.9399 89.4752V56.4834C58.94 56.0446 58.8536 55.6101 58.6856 55.2047C58.5176 54.7993 58.2714 54.431 57.9609 54.1207C57.6504 53.8105 57.2817 53.5644 56.876 53.3965C56.4703 53.2287 56.0355 53.1423 55.5964 53.1425Z" fill="#CCCCCC"/>
<path d="M48.16 77.8124L32.5712 80.8458C31.6466 81.0247 30.6886 80.8297 29.9076 80.3037C29.1266 79.7777 28.5863 78.9636 28.4052 78.0401L27.2069 71.8913C27.0279 70.9673 27.223 70.0101 27.7494 69.2297C28.2758 68.4493 29.0906 67.9094 30.0149 67.7285L45.6036 64.6951C46.5283 64.5162 47.4863 64.7112 48.2673 65.2372C49.0483 65.7632 49.5886 66.5773 49.7697 67.5009L50.968 73.6496C51.147 74.5736 50.9518 75.5308 50.4254 76.3112C49.899 77.0916 49.0843 77.6315 48.16 77.8124Z" fill="#3F3D56"/>
<path d="M45.0413 70.5483L33.1446 72.8632C32.927 72.9056 32.7015 72.8598 32.5176 72.736C32.3338 72.6122 32.2067 72.4205 32.1643 72.203C32.122 71.9856 32.1678 71.7602 32.2917 71.5766C32.4156 71.3929 32.6074 71.2659 32.825 71.2235L44.7217 68.9086C44.9393 68.8662 45.1649 68.912 45.3487 69.0358C45.5325 69.1596 45.6596 69.3513 45.702 69.5688C45.7443 69.7862 45.6986 70.0116 45.5747 70.1953C45.4508 70.3789 45.2589 70.5059 45.0413 70.5483Z" fill="white"/>
<path d="M42.7292 73.9765L36.5757 75.1739C36.3581 75.2162 36.1326 75.1704 35.9488 75.0466C35.7649 74.9228 35.6379 74.7311 35.5955 74.5137C35.5531 74.2962 35.5989 74.0709 35.7228 73.8872C35.8467 73.7035 36.0386 73.5765 36.2562 73.5342L42.4096 72.3368C42.5174 72.3158 42.6282 72.3163 42.7358 72.3381C42.8434 72.36 42.9456 72.4027 43.0366 72.464C43.1276 72.5253 43.2057 72.604 43.2663 72.6954C43.3269 72.7868 43.3689 72.8893 43.3899 72.997C43.4109 73.1047 43.4104 73.2154 43.3886 73.3229C43.3667 73.4304 43.3239 73.5325 43.2626 73.6235C43.2012 73.7144 43.1225 73.7924 43.031 73.853C42.9395 73.9135 42.8369 73.9555 42.7292 73.9765Z" fill="white"/>
<path d="M58.9399 56.4834V60.8684H19.2358V56.4834C19.2357 56.0446 19.3221 55.6101 19.4901 55.2047C19.6581 54.7993 19.9044 54.431 20.2149 54.1207C20.5254 53.8105 20.894 53.5644 21.2997 53.3965C21.7054 53.2287 22.1402 53.1423 22.5793 53.1425H55.5964C56.0355 53.1423 56.4703 53.2287 56.876 53.3965C57.2817 53.5644 57.6504 53.8105 57.9609 54.1207C58.2714 54.431 58.5176 54.7993 58.6856 55.2047C58.8536 55.6101 58.94 56.0446 58.9399 56.4834Z" fill="#B3B3B3"/>
<path d="M138.225 62.2415C137.996 61.5022 137.607 60.822 137.086 60.249C136.566 59.676 135.926 59.224 135.211 58.925C134.497 58.6259 133.725 58.487 132.951 58.5181C132.177 58.5491 131.42 58.7493 130.731 59.1047L85.3078 42.8199L83.3071 54.1588L128.586 66.6007C129.26 67.7163 130.32 68.5461 131.566 68.9329C132.811 69.3196 134.155 69.2364 135.343 68.6991C136.531 68.1618 137.481 67.2076 138.012 66.0174C138.543 64.8273 138.619 63.4838 138.225 62.2415Z" fill="#FFB8B8"/>
<path opacity="0.2" d="M138.225 62.2415C137.996 61.5022 137.607 60.822 137.086 60.249C136.566 59.676 135.926 59.224 135.211 58.925C134.497 58.6259 133.725 58.487 132.951 58.5181C132.177 58.5491 131.42 58.7493 130.731 59.1047L85.3078 42.8199L83.3071 54.1588L128.586 66.6007C129.26 67.7163 130.32 68.5461 131.566 68.9329C132.811 69.3196 134.155 69.2364 135.343 68.6991C136.531 68.1618 137.481 67.2076 138.012 66.0174C138.543 64.8273 138.619 63.4838 138.225 62.2415Z" fill="black"/>
<path d="M93.3697 44.8861L89.0804 56.0836C88.9583 56.4022 88.769 56.6907 88.5253 56.9296C88.2815 57.1685 87.9891 57.3521 87.668 57.4679C87.3469 57.5837 87.0045 57.629 86.6643 57.6007C86.3241 57.5723 85.994 57.4711 85.6965 57.3038L75.2717 51.4408C73.6441 50.8075 72.3342 49.5552 71.6292 47.9583C70.9242 46.3615 70.8816 44.5505 71.5108 42.9224C72.14 41.2942 73.3895 39.9818 74.9856 39.2728C76.5816 38.5638 78.3939 38.5162 80.025 39.1402L91.6661 41.7201C91.9994 41.794 92.3128 41.9389 92.585 42.1448C92.8572 42.3507 93.0818 42.6128 93.2434 42.9133C93.4051 43.2138 93.5001 43.5455 93.5219 43.886C93.5437 44.2264 93.4918 44.5675 93.3697 44.8861Z" fill="#5FD896"/>
<path d="M141.8 72.6097L125.524 80.0023L127.661 88.041C131.787 103.564 132.883 119.737 130.886 135.674L142.787 138.157L152.651 113.023L149.198 84.4378L141.8 72.6097Z" fill="#5FD896"/>
<path d="M173.736 109.819C163.042 109.819 154.327 117.587 153.904 127.315H193.568C193.145 117.587 184.43 109.819 173.736 109.819Z" fill="#3F3D56"/>
<path d="M165.411 111.496C164.855 67.5843 139.827 71.624 139.827 71.624C139.827 71.624 140.295 85.2921 140.52 85.7172C156.469 115.869 130.148 151.217 96.6435 144.715C96.0118 144.592 95.4049 144.468 94.8228 144.341C90.5776 143.456 86.8295 140.987 84.3407 137.439C81.8519 133.89 80.8095 129.527 81.4254 125.237C84.7258 98.7544 68.3104 99.223 68.3104 99.223H44.3073L31.842 88.013C31.402 87.6173 30.8717 87.3353 30.2974 87.1917C29.7232 87.0482 29.1225 87.0474 28.5478 87.1894C27.9732 87.3314 27.4421 87.612 27.0011 88.0065C26.56 88.401 26.2224 88.8975 26.0178 89.4525L24.4141 93.8018C24.4141 93.8018 0.739625 96.266 2.7125 119.43H10.0318C10.0141 120.088 10.0405 120.746 10.1108 121.401L64.7351 120.957C67.937 120.931 70.7633 123.524 70.7765 126.723C70.7798 127.502 70.6258 128.274 70.3238 128.992C70.0217 129.71 69.5778 130.36 69.0186 130.903C68.4594 131.445 67.7965 131.87 67.0693 132.151C66.3422 132.431 65.5658 132.563 64.7867 132.537L55.9801 132.243C53.2674 144.318 59.9258 152.45 67.2624 157.563C74.1699 162.307 82.3665 164.823 90.7483 164.771H114.673C145.746 164.771 151.171 138.65 151.171 138.65C167.447 131.75 165.411 111.496 165.411 111.496Z" fill="#3F3D56"/>
<path d="M172.257 179.063C187.579 179.063 200 166.651 200 151.341C200 136.03 187.579 123.619 172.257 123.619C156.934 123.619 144.513 136.03 144.513 151.341C144.513 166.651 156.934 179.063 172.257 179.063Z" fill="#3F3D56"/>
<path d="M172.256 158.136C176.012 158.136 179.056 155.093 179.056 151.341C179.056 147.588 176.012 144.546 172.256 144.546C168.501 144.546 165.457 147.588 165.457 151.341C165.457 155.093 168.501 158.136 172.256 158.136Z" fill="white"/>
<path d="M32.1824 179.063C49.8201 179.063 64.1183 164.776 64.1183 147.152C64.1183 129.528 49.8201 115.24 32.1824 115.24C14.5448 115.24 0.246582 129.528 0.246582 147.152C0.246582 164.776 14.5448 179.063 32.1824 179.063Z" fill="#3F3D56"/>
<path d="M32.1829 154.973C36.5058 154.973 40.0103 151.471 40.0103 147.152C40.0103 142.832 36.5058 139.33 32.1829 139.33C27.8599 139.33 24.3555 142.832 24.3555 147.152C24.3555 151.471 27.8599 154.973 32.1829 154.973Z" fill="white"/>
<path d="M125.57 82.1866L119.714 66.2927C119.409 65.4644 119.27 64.5841 119.305 63.7021C119.34 62.8201 119.549 61.9536 119.92 61.1523C120.29 60.3509 120.815 59.6303 121.464 59.0315C122.113 58.4328 122.874 57.9677 123.703 57.6627L140.492 51.4868C141.95 50.9501 143.501 50.7057 145.054 50.7676C146.607 50.8295 148.132 51.1965 149.544 51.8476C150.955 52.4987 152.224 53.4212 153.278 54.5623C154.333 55.7035 155.152 57.041 155.689 58.4985C156.173 59.8067 156.42 61.1905 156.419 62.5854C156.413 64.3564 156.012 66.1038 155.245 67.7006C154.478 69.2973 153.365 70.7033 151.986 71.8163C150.99 72.6146 149.871 73.2453 148.672 73.6837L125.57 82.1866Z" fill="#3F3D56"/>
<path d="M156.173 62.5853C156.171 64.3203 155.781 66.0329 155.03 67.5971C154.279 69.1613 153.186 70.5374 151.832 71.624C149.756 71.0766 147.823 70.0839 146.169 68.7149C144.515 67.3458 143.18 65.6332 142.255 63.6962C141.33 61.7592 140.839 59.6442 140.815 57.4982C140.791 55.3523 141.235 53.2268 142.116 51.2697C143.808 50.9021 145.56 50.9177 147.245 51.3155C148.93 51.7133 150.505 52.4831 151.853 53.5684C153.201 54.6536 154.289 56.0269 155.036 57.5872C155.784 59.1475 156.172 60.8554 156.173 62.5853Z" fill="#5FD896"/>
<path d="M6.90505 122.633C10.7186 122.633 13.8101 118.882 13.8101 114.255C13.8101 109.627 10.7186 105.876 6.90505 105.876C3.0915 105.876 0 109.627 0 114.255C0 118.882 3.0915 122.633 6.90505 122.633Z" fill="#5FD896"/>
<path d="M98.1807 143.912H104.228L107.104 128.241L98.1797 128.241L98.1807 143.912Z" fill="#FFB8B8"/>
<path d="M96.6382 141.939L108.546 141.939H108.547C109.543 141.939 110.53 142.135 111.451 142.516C112.372 142.897 113.208 143.455 113.913 144.16C114.618 144.864 115.177 145.7 115.558 146.62C115.939 147.54 116.136 148.526 116.136 149.522V149.768L96.6386 149.769L96.6382 141.939Z" fill="#2F2E41"/>
<path d="M105.199 137.48C105.129 137.48 105.058 137.477 104.987 137.47L96.6187 136.861C96.2803 136.83 95.9536 136.721 95.6639 136.544C95.3741 136.366 95.129 136.124 94.9475 135.837C94.7659 135.55 94.6528 135.225 94.6168 134.888C94.5808 134.55 94.623 134.208 94.7399 133.89L105.939 108.748C106.019 108.523 106.052 108.285 106.035 108.048C106.019 107.81 105.953 107.579 105.842 107.368C105.732 107.155 105.578 106.967 105.39 106.818C105.202 106.668 104.985 106.56 104.752 106.501C99.4856 105.125 85.974 101.463 74.2776 97.1773C69.2666 95.3412 66.1105 92.6878 64.8972 89.2909C63.2976 84.8125 65.664 80.7283 65.7655 80.5569L65.8449 80.4227L76.8509 81.4223L88.7824 82.4364L114.93 96.4467C117.121 97.6306 118.785 99.5958 119.591 101.951C120.397 104.306 120.286 106.878 119.279 109.154L107.224 136.166C107.05 136.557 106.766 136.889 106.406 137.122C106.047 137.356 105.628 137.48 105.199 137.48Z" fill="#2F2E41"/>
<path d="M78.7648 31.6804C85.4552 31.6804 90.8788 26.261 90.8788 19.5757C90.8788 12.8905 85.4552 7.47107 78.7648 7.47107C72.0745 7.47107 66.6509 12.8905 66.6509 19.5757C66.6509 26.261 72.0745 31.6804 78.7648 31.6804Z" fill="#FFB8B8"/>
<path d="M94.728 145.39H100.775L103.652 129.719L94.7271 129.72L94.728 145.39Z" fill="#FFB8B8"/>
<path d="M93.1855 143.418L105.094 143.417H105.094C106.091 143.417 107.078 143.613 107.998 143.994C108.919 144.375 109.756 144.934 110.46 145.638C111.165 146.342 111.724 147.178 112.105 148.098C112.487 149.018 112.683 150.004 112.683 151V151.247L93.1859 151.247L93.1855 143.418Z" fill="#2F2E41"/>
<path d="M101.747 138.959C101.677 138.959 101.606 138.955 101.535 138.948L93.1666 138.34C92.8281 138.308 92.5015 138.2 92.2117 138.022C91.9219 137.845 91.6768 137.603 91.4953 137.316C91.3138 137.029 91.2006 136.704 91.1646 136.366C91.1287 136.028 91.1708 135.687 91.2878 135.368L102.487 110.226C102.567 110.002 102.6 109.764 102.583 109.526C102.566 109.289 102.501 109.057 102.39 108.847C102.28 108.633 102.126 108.446 101.938 108.296C101.75 108.147 101.532 108.039 101.3 107.979C96.0334 106.604 82.5218 102.941 70.8255 98.6558C65.8144 96.8197 62.6583 94.1664 61.445 90.7694C59.8455 86.291 62.2118 82.2068 62.3133 82.0355L62.3927 81.9012L73.3987 82.9008L85.3303 83.9149L111.477 97.9252C113.668 99.1091 115.333 101.074 116.139 103.429C116.945 105.784 116.833 108.356 115.827 110.633L103.772 137.644C103.598 138.035 103.314 138.368 102.954 138.601C102.595 138.834 102.176 138.958 101.747 138.959Z" fill="#2F2E41"/>
<path d="M82.5007 38.5442L69.677 34.1086C69.677 34.1086 61.6267 40.2889 65.4941 55.6204C67.513 63.5321 66.9249 71.8834 63.8171 79.4346C63.4429 80.3688 63.0115 81.2792 62.5254 82.1606C62.5254 82.1606 76.8287 99.41 90.1456 86.5961L84.9668 61.7077C84.9668 61.7077 93.1049 45.1975 82.5007 38.5442Z" fill="#5FD896"/>
<path d="M80.2687 32.0921C78.5446 29.5134 77.184 25.9377 79.0822 23.4841C80.956 21.0623 84.6517 21.4191 87.5215 20.3474C91.5185 18.8547 93.8366 14.1626 93.1137 9.96046C92.3907 5.75834 89.0149 2.27491 84.9933 0.849596C80.9717 -0.575712 76.4368 -0.112169 72.4985 1.52916C67.6506 3.54966 63.4918 7.45817 61.748 12.4092C60.0041 17.3603 60.9363 23.305 64.554 27.1105C68.4326 31.1904 74.5198 32.2777 80.1509 32.2117" fill="#2F2E41"/>
<path d="M69.0005 10.0953C66.8279 11.8626 63.5133 11.0776 61.1812 9.52663C58.8491 7.97563 56.9568 5.76711 54.4335 4.55107C49.9851 2.40724 44.6067 3.8324 40.2773 6.20707C35.9479 8.58174 32.11 11.8624 27.5369 13.7259C22.9637 15.5894 17.128 15.6815 13.6652 12.1628C12.813 14.6299 12.7434 17.2996 13.4657 19.8077C14.1881 22.3158 15.6672 24.5401 17.7014 26.1772C19.7356 27.8142 22.2257 28.7843 24.832 28.955C27.4383 29.1257 30.0339 28.4888 32.2645 27.1311C37.2753 24.0812 40.0431 17.6865 45.6632 16.0031C48.7732 15.0716 52.1127 15.8218 55.2559 16.6344C58.3991 17.4471 61.6765 18.3251 64.8485 17.6333C68.0206 16.9415 70.9876 14.0932 70.5841 10.8741L69.0005 10.0953Z" fill="#2F2E41"/>
<path d="M137.622 61.7485C137.303 61.0431 136.833 60.4161 136.246 59.9116C135.658 59.4072 134.967 59.0376 134.221 58.8289C133.476 58.6202 132.693 58.5775 131.929 58.7037C131.164 58.83 130.437 59.1221 129.798 59.5596L82.7108 48.9994L82.1255 60.4983L128.595 67.2628C129.402 68.2868 130.556 68.9795 131.84 69.2098C133.123 69.44 134.447 69.1918 135.559 68.5121C136.672 67.8324 137.497 66.7684 137.877 65.5219C138.257 64.2753 138.166 62.9327 137.622 61.7485Z" fill="#FFB8B8"/>
<path d="M90.9668 50.0558L88.0928 61.6965C88.011 62.0277 87.8588 62.3374 87.6464 62.6046C87.4341 62.8717 87.1666 63.0899 86.8622 63.2444C86.5578 63.3989 86.2237 63.486 85.8826 63.4999C85.5414 63.5137 85.2013 63.4539 84.8854 63.3246L73.8164 58.7917C72.1219 58.3649 70.6661 57.2838 69.7683 55.7857C68.8706 54.2877 68.6043 52.4949 69.0278 50.8008C69.4513 49.1068 70.5301 47.6498 72.0274 46.7495C73.5248 45.8493 75.3183 45.5794 77.0146 45.999L88.8852 47.1239C89.2251 47.1562 89.554 47.2614 89.8495 47.4321C90.1451 47.6029 90.4003 47.8353 90.5979 48.1136C90.7954 48.3918 90.9306 48.7093 90.9943 49.0445C91.0579 49.3796 91.0486 49.7246 90.9668 50.0558Z" fill="#5FD896"/>
<path d="M132.183 70.8847C134.089 70.8847 135.635 69.3401 135.635 67.4348C135.635 65.5295 134.089 63.9849 132.183 63.9849C130.276 63.9849 128.73 65.5295 128.73 67.4348C128.73 69.3401 130.276 70.8847 132.183 70.8847Z" fill="#5FD896"/>
</svg>
