<svg width="18" height="18" viewBox="0 0 18 18" fill="none" xmlns="http://www.w3.org/2000/svg">
<path d="M4.75 10.85L7.15 13.25M4.75 10.85C4.75 10.85 6.167 7.308 8.184 4.85M4.75 10.85C-0.469 9.545 4.22 4.85 8.184 4.85M7.15 13.25C7.15 13.25 10.692 11.833 13.15 9.816M7.15 13.25C8.455 18.468 13.15 13.78 13.15 9.816M8.184 4.85C10.224 2.364 13.587 1.25 16.75 1.25C16.75 4.413 15.636 7.775 13.15 9.816M11.45 6.457L12.157 5.75M2.519 13.576C1.567 14.377 1.25 16.755 1.25 16.755C1.25 16.755 3.622 16.437 4.421 15.483C4.871 14.949 4.865 14.129 4.364 13.633C4.11631 13.4002 3.79207 13.2659 3.45229 13.2554C3.1125 13.2449 2.78059 13.3589 2.519 13.576Z" stroke="#0D1A12" stroke-width="1.5" stroke-linecap="round" stroke-linejoin="round"/>
</svg>
