<svg width="14" height="14" viewBox="0 0 14 14" fill="none" xmlns="http://www.w3.org/2000/svg">
<path fill-rule="evenodd" clip-rule="evenodd" d="M12.6301 0.749636C12.824 0.749756 13.0099 0.826838 13.1471 0.96395C13.2842 1.10106 13.3612 1.28699 13.3614 1.4809L13.3614 9.75931C13.3648 9.85752 13.3485 9.95541 13.3133 10.0472C13.2781 10.1389 13.2248 10.2226 13.1566 10.2933C13.0883 10.364 13.0065 10.4202 12.9161 10.4586C12.8256 10.497 12.7284 10.5168 12.6301 10.5168C12.5318 10.5168 12.4346 10.497 12.3441 10.4586C12.2537 10.4202 12.1719 10.364 12.1037 10.2933C12.0354 10.2226 11.9821 10.1389 11.9469 10.0472C11.9117 9.95541 11.8954 9.85751 11.8988 9.75931L11.8988 3.24696L2.10962 13.0362C1.9724 13.1734 1.78628 13.2505 1.59222 13.2505C1.39815 13.2505 1.21204 13.1734 1.07482 13.0362C0.937594 12.899 0.860503 12.7128 0.860502 12.5188C0.860503 12.3247 0.937594 12.1386 1.07482 12.0014L10.864 2.21216L4.35169 2.21216C4.25349 2.21562 4.1556 2.19927 4.06385 2.16409C3.9721 2.1289 3.88838 2.07559 3.81769 2.00734C3.74699 1.9391 3.69076 1.85731 3.65236 1.76686C3.61395 1.67641 3.59416 1.57916 3.59416 1.4809C3.59416 1.38263 3.61395 1.28538 3.65236 1.19493C3.69076 1.10448 3.74699 1.02269 3.81769 0.954448C3.88838 0.886202 3.9721 0.832894 4.06385 0.797706C4.1556 0.762517 4.25349 0.746169 4.35169 0.749635L12.6301 0.749636Z" fill="#0D1A12"/>
</svg>
