<svg width="24" height="20" viewBox="0 0 24 20" fill="none" xmlns="http://www.w3.org/2000/svg">
<g clip-path="url(#clip0_163_337)">
<path d="M14.5779 13.3079L15.0228 12.8659L13.9896 11.8279L13.5467 12.2698L14.5779 13.3079ZM16.5145 12.6806L18.3789 13.6942L19.0765 12.4084L17.2131 11.3957L16.5145 12.6806ZM18.737 15.7079L17.3516 17.0865L18.3828 18.1236L19.7682 16.746L18.737 15.7079ZM16.5067 17.5294C15.0921 17.6621 11.4335 17.544 7.4705 13.6045L6.4383 14.6416C10.7622 18.9411 14.8784 19.1519 16.6433 18.987L16.5067 17.5294ZM7.4705 13.6045C3.69388 9.84834 3.06753 6.69026 2.98948 5.31951L1.528 5.40244C1.62556 7.12734 2.40118 10.6279 6.4383 14.6416L7.4705 13.6045ZM8.81198 7.57515L9.09199 7.29612L8.06173 6.25903L7.78173 6.53709L8.81198 7.57515ZM9.31443 3.74974L8.08515 2.10679L6.91342 2.98485L8.14271 4.62682L9.31443 3.74974ZM3.94754 1.74874L2.41581 3.27071L3.44802 4.30877L4.97877 2.7868L3.94754 1.74874ZM8.29686 7.05612C7.77978 6.53709 7.77978 6.53709 7.77978 6.53904H7.77783L7.7749 6.54294C7.72853 6.58968 7.68702 6.641 7.65099 6.69611C7.59831 6.77416 7.54075 6.8766 7.49197 7.00636C7.37321 7.34131 7.34362 7.7014 7.40611 8.05125C7.53685 8.89516 8.11832 10.0103 9.60711 11.4913L10.6393 10.4532C9.24516 9.06785 8.91345 8.22491 8.85198 7.82686C8.82272 7.63759 8.85296 7.54393 8.86174 7.52246C8.86759 7.50945 8.86759 7.5075 8.86174 7.51661C8.85304 7.53007 8.84325 7.5428 8.83247 7.55466L8.82271 7.56441L8.81296 7.57319L8.29686 7.05612ZM9.60711 11.4913C11.0969 12.9723 12.2179 13.5498 13.0628 13.6786C13.495 13.745 13.8433 13.6923 14.1077 13.5938C14.2558 13.5396 14.3941 13.4618 14.5174 13.3635L14.5662 13.3196L14.573 13.3137L14.576 13.3108L14.5769 13.3089C14.5769 13.3089 14.5779 13.3079 14.0618 12.7889C13.5447 12.2698 13.5476 12.2689 13.5476 12.2689L13.5496 12.2669L13.5515 12.265L13.5574 12.2601L13.5672 12.2503L13.6042 12.2211C13.6133 12.2152 13.6111 12.2158 13.5974 12.223C13.573 12.2318 13.4774 12.262 13.2852 12.2328C12.8813 12.1703 12.0325 11.8386 10.6393 10.4532L9.60711 11.4913ZM8.08515 2.10581C7.09001 0.778971 5.13487 0.568237 3.94754 1.74874L4.97877 2.7868C5.4978 2.2707 6.41879 2.32435 6.91342 2.98485L8.08515 2.10581ZM2.99045 5.32049C2.97094 4.98292 3.12607 4.62975 3.44802 4.30974L2.41484 3.27168C1.89093 3.79266 1.47824 4.53023 1.528 5.40244L2.99045 5.32049ZM17.3516 17.0865C17.0843 17.3538 16.7955 17.504 16.5077 17.5304L16.6433 18.987C17.3604 18.9197 17.9467 18.5587 18.3838 18.1245L17.3516 17.0865ZM9.09199 7.29612C10.053 6.34099 10.1242 4.8317 9.3154 3.75071L8.14368 4.62779C8.53686 5.15365 8.47832 5.84342 8.06076 6.26001L9.09199 7.29612ZM18.3799 13.6952C19.177 14.1284 19.3009 15.1489 18.7379 15.7089L19.7702 16.746C21.0775 15.4455 20.6746 13.2767 19.0775 12.4093L18.3799 13.6952ZM15.0228 12.8669C15.3974 12.4942 16.0004 12.4025 16.5155 12.6815L17.214 11.3967C16.1565 10.821 14.8452 10.9801 13.9906 11.8289L15.0228 12.8669Z" fill="#0D1A12"/>
</g>
<defs>
<clipPath id="clip0_163_337">
<rect width="23.4149" height="19.9998" fill="white" transform="translate(0.549316 0.000488281)"/>
</clipPath>
</defs>
</svg>
